# xmcd CD database file
#
# Track frame offsets:
#	150
#	14590
#	26932
#	39443
#	55131
#	72002
#	83927
#	95334
#	113180
#	127601
#	151670
#	186639
#
# Disc length: 2780 seconds
#
# Revision: 0
# Processed by: cddbd v1.5PL3 Copyright (c) Steve Scherf et al.
# Submitted via: CDex 1.50beta10
#
DISCID=960ada0c
DTITLE=Chubby Checker - The Texas Twist
DYEAR=2001
DGENRE=Country
TTITLE0=The Twist
TTITLE1=Honky Tonk Girls
TTITLE2=Rowdy Country Boys (Like Me)
TTITLE3=You're Just What I Needed
TTITLE4=Slide Up Closer
TTITLE5=From Here 'Til Eternity
TTITLE6=The Texas Twist
TTITLE7=The Other Side of NAshville
TTITLE8=That's What It Takes
TTITLE9=Run To Me
TTITLE10=Take Me Back To Oklahoma
TTITLE11=Slow Twistin w/ Dee Dee Sharp
EXTD=YEAR: 2001
EXTT0=
EXTT1=
EXTT2=
EXTT3=
EXTT4=
EXTT5=
EXTT6=
EXTT7=
EXTT8=
EXTT9=
EXTT10=
EXTT11=
PLAYORDER=
